<?xml version="1.0" encoding="UTF-8"?>
<svg id="Capa_2" data-name="Capa 2" xmlns="http://www.w3.org/2000/svg" viewBox="0 0 323.35 89.84">
  <defs>
    <style>
      .cls-1 {
        fill: #f6d9df;
      }

      .cls-2 {
        fill: #e4486f;
      }
    </style>
  </defs>
  <g id="Capa_1-2" data-name="Capa 1">
    <g>
      <g>
        <path class="cls-2" d="m74.02,23.47c4.51.09,6.78,2.63,6.84,6.49.07,4.57-2.23,7.25-6.62,7.12-4.16-.12-7.07-2.39-6.9-8.14.08-2.84,3.35-5.6,6.69-5.47Z"/>
        <path class="cls-2" d="m39.76,28.5c.43,0,.87,0,1.3,0,1.55.02,2.13,1.39,1.71,2.89-.46,1.6-1.49,1.47-2.64,1.52-.7.03-1.4-.13-2.12.19-1.71.74-1.22,2.23-1.11,3.42.12,1.21-.7,1.7-1.34,2.11-.68.44-1.4-.38-2-.76-.93-.6-1.27-1.5-.94-2.65.23-.81-.26-1.06-1.01-1.46-.97-.51-2.15.04-2.97-.91-.92-1.06-.76-2.73.42-3.51.56-.37,1.13-.5,1.78-.51,1.66-.03,2.14-.75,1.7-2.33-.33-1.21.14-2.36,1.11-2.85.8-.41,2.04-.6,2.84.3.66.75.91,1.74.62,2.71-.42,1.41-.18,1.83,1.27,1.85.46,0,.92,0,1.38,0h0Z"/>
        <path class="cls-2" d="m45.62.05c1.19,0,2.39,0,3.58,0,2.92,0,5.87-.25,8.72.39,3.76.84,7.52.23,11.28.4,2.68.12,5.37-.03,8.06.04,1.33.04,2.51-.79,3.86-.5,1.38.29,2.77.53,4.15.81.11.02.21.2.29.32,1.03,1.41,2.59,1.94,4.1,2.63,1.43.66,2.73,1.56,3.92,2.64,1.35,1.23,2.7,2.61,3.59,4.07.86,1.4,2.28,2.54,2.52,4.49.13,1.03.71,2.41,1.73,3.26.08.06.19.16.18.23-.21,1.74.94,3.12,1.36,4.68.38,1.41.57,3.1,1.77,4.27.17.17.18.55.18.83,0,1.88.51,3.65,1.14,5.4.03.07.04.16.03.24-.22,1.67.88,2.92,1.35,4.37.55,1.7,1.02,3.42,1.5,5.14,1.17,4.17.29,8.43.56,12.65.07,1.14-.47,2.16-1,3.06-.35.6,0,1.32-.57,1.77-1.32,1.06-2.28,2.46-3.42,3.68-1.09,1.16-2.43,1.03-3.65,1.5-.17.06-.48.16-.48.18.19.85.16,1.91.68,2.47.86.94,1.4,1.99,1.74,3.13.53,1.79.98,3.58,1.96,5.21.48.8.15,1.83.38,2.77.37,1.48.53,3.01.59,4.57.11,3.01-3,5.48-5.48,5.03-1.05-.19-2.18,0-3.18-.62-.66-.41-1.31.33-2.01.32-1.3,0-2.6,0-3.91,0-13.1,0-26.2.08-39.31-.04-4.17-.04-8.35-.29-12.51-.54-4.01-.24-8.01-.22-12-.16-2.34.03-4.53-.68-6.79-.97-1.34-.17-2.51-.19-3.85,0-2.05.29-4.17.16-6.25.09-.95-.03-2.24-1.81-2.53-2.71-.69-2.13-.26-4.29-.36-6.43-.1-2.23.85-4.31,1-6.52.11-1.67.96-3.22.93-4.93,0-.11-.02-.25.03-.32,1.12-1.51-.4-2.13-1.15-2.57-1.92-1.15-3.19-2.79-4.37-4.6-.88-1.34-1.39-2.8-1.96-4.29-.5-1.31-1.22-2.57-1.77-3.9-.14-.35-.19-.67-.19-1.01,0-2.82-.18-5.66.07-8.46.12-1.39-.1-2.95.67-4.22.68-1.12,1.36-2.09,1.45-3.53.08-1.42,1.06-2.73,1.49-4.1.53-1.68,2.49-2.67,2.12-4.72-.11-.6.56-1.1.85-1.35,1.56-1.28,1.06-3.35,2.02-4.78.66-.99.66-2.34,1.77-3.04.1-.07.24-.18.25-.28.13-1.39.96-2.39,1.86-3.34.18-.19.29-.4.26-.65-.11-1.19.72-1.87,1.39-2.63.77-.87,1.65-1.63,2.34-2.59.51-.69,1.35-1.15,2.08-1.67,1.1-.79,2.21-1.59,3.36-2.3,1.2-.75,2.62-.93,3.97-1.2,1.96-.39,4-.41,5.92-.92,4.53-1.2,9.12-.52,13.68-.75Zm59.3,51.42c-.09-2.93.22-5.9-1.24-8.67-.73-1.38-1.07-2.92-1.35-4.49-.18-1-.3-2.24-.86-3.03-1.24-1.75-1.14-3.83-1.77-5.71-.38-1.15-.99-2.43-.74-3.79.03-.17-.18-.38-.27-.58-.54-1.09-1.05-2.19-1.62-3.26-.43-.81-.48-1.81-.91-2.51-.89-1.42-1.52-2.97-2.39-4.4-.85-1.4-1.77-2.68-2.89-3.85-.34-.35-.9-.4-1.32-.78-1.06-.97-2.16-1.9-3.44-2.61-1.13-.63-2.49-.52-3.6-1.27-.52-.35-1.13-.69-1.81-.89-1.21-.35-2.36.05-3.54,0-7.35-.26-14.72.54-22.07-.65-2.75-.45-5.63-.17-8.45-.06-5.15.21-10.34-.66-15.44,1.12-1.7.59-3.71.45-5.56.94-1.83.49-3.55,1.35-4.68,2.68-1.44,1.71-3.44,3.01-4.27,5.25-.3.8-.95,1.45-1.32,2.23-.59,1.23-.85,2.7-1.68,3.7-1.28,1.55-1.59,3.47-2.5,5.14-.68,1.25-.84,2.73-1.73,3.93-.33.45-.94.95-.81,1.61.21,1.01-.61,1.59-1,2.25-.57.95-1.1,1.76-1.16,2.95-.05,1.09-.54,2.2-.95,3.18-.51,1.24-1.03,2.36-.95,3.75.09,1.68.02,3.36.03,5.04,0,.24-.05.59.08.7,1,.9.5,2.31,1.12,3.26.46.7.59,1.52,1.08,2.18.57.76,1.41,1.46,1.64,2.31.34,1.24,1.14,2.16,1.98,2.81,2.25,1.75,4.87,2.94,7.68,3.47,2.69.51,5.2-.19,7.4-1.9,1.65-1.28,3.36-2.48,4.98-3.79,1.04-.84,2.03-1.74,2.98-2.69.96-.96,1.63-2.18,2.78-2.97.54-.37,1.16-.4,1.7-.74,1.32-.83,2.63-1.88,4.09-2.24,1.94-.48,4-.5,5.99-.9,2.37-.47,4.81-.47,7.19-.67,2.99-.24,6.06-1.14,9.14.23,2.21.98,4.71,1.2,6.8,2.62,1.21.82,2.59,1.39,3.91,2.04.68.34.69,1.13,1.16,1.64.77.84,1.81,1.31,2.55,2.2.81.96,1.75,1.98,2.98,2.33,2.36.67,4.71,1.38,7.17,1.71.93.12,1.88.12,2.79.33,2.43.56,4.72,1.7,7.38.81,1.88-.62,3.47-1.23,4.59-3.07.75-1.23,1.16-2.38,1.13-3.76-.03-1.06,0-2.12,0-3.17Zm-32.08,33.04c6.08,0,12.15.03,18.23-.02,2.67-.02,5.34.25,8-.29,1.08-.22,2.29-1.41,1.89-2.1-.87-1.47-1.32-3.11-1.83-4.7-.35-1.09-1.18-2.07-1.01-3.36.06-.42-.2-.96-.46-1.34-1.07-1.56-2.15-3.1-3.33-4.6-1.42-1.79-2.99-2.66-5.24-2.52-1.45.09-2.81-.41-4.18-.79-1.08-.3-2.16-.61-3.22-.93-.85-.26-1.91-.07-2.61-.89-.5-.57-1.03-1.31-1.68-1.51-1.44-.43-2.03-1.95-3.42-2.38-.28-.08-.62-.34-.71-.6-.77-2.14-2.91-2.56-4.54-3.57-1.32-.82-2.75-1.46-4.34-1.84-1.59-.39-3.19-.81-4.8-1.09-.92-.16-1.86.18-2.8.35-2.36.41-4.78.44-7.17.78-2.56.36-5.07.74-7.42,1.78-1.19.53-2.54,1.13-3.29,2.1-1.26,1.64-2.81,2.98-4.36,4.21-1.71,1.37-3.41,2.81-5.31,4-1.4.88-2.69,2.21-4.18,2.75-2.32.85-4.93.6-7.36.15-2.56-.48-3.65.16-3.67,2.73,0,.62,0,1.23-.37,1.78-.4.62-1.13,1.31-1.07,1.91.21,2.2-.82,4.22-.7,6.4.07,1.29.81,1.88,1.75,1.9,5.02.14,10.03.05,15.04.8,3.84.58,7.77-.18,11.69.42,3.34.51,6.79.4,10.19.43,7.43.05,14.86.02,22.29.02Z"/>
      </g>
      <g>
        <path class="cls-1" d="m154.81,48.51c-2.5,0-4.82-.46-6.98-1.37s-4.04-2.17-5.64-3.77-2.86-3.46-3.77-5.57c-.91-2.11-1.37-4.4-1.37-6.86s.46-4.79,1.39-6.89c.93-2.1,2.22-3.94,3.89-5.52s3.59-2.82,5.78-3.72c2.19-.9,4.55-1.34,7.08-1.34,2.91,0,5.57.54,7.97,1.61,2.4,1.07,4.38,2.54,5.95,4.39l-5.18,5.18c-1.06-1.41-2.33-2.47-3.82-3.19-1.49-.72-3.14-1.08-4.97-1.08-1.98,0-3.76.44-5.33,1.32-1.57.88-2.79,2.11-3.67,3.7-.88,1.58-1.32,3.43-1.32,5.54s.43,3.92,1.3,5.52c.86,1.6,2.05,2.86,3.55,3.77,1.5.91,3.23,1.37,5.18,1.37s3.62-.38,5.02-1.13c1.39-.75,2.46-1.85,3.22-3.29.75-1.44,1.13-3.17,1.13-5.18l5.04,3.36-15.12-.24v-6.38h17.81v1.1c0,4.03-.73,7.44-2.18,10.22-1.46,2.78-3.47,4.89-6.05,6.31-2.58,1.42-5.54,2.14-8.9,2.14Z"/>
        <path class="cls-1" d="m172.24,47.93l13.39-33.89h6.86l13.3,33.89h-8.02l-10.13-28.08h2.78l-10.37,28.08h-7.82Zm7.68-6.1v-6.14h18.43v6.14h-18.43Z"/>
        <path class="cls-1" d="m209.34,47.93V14.05h5.47l13.34,20.78h-2.83l13.3-20.78h5.47v33.89h-7.54v-21.17l1.3.38-8.64,13.49h-4.99l-8.64-13.49,1.3-.38v21.17h-7.54Z"/>
        <path class="cls-1" d="m250.52,47.93V14.05h7.58v33.89h-7.58Zm5.81-27.36v-6.53h18.34v6.53h-18.34Zm0,13.25v-6.38h16.9v6.38h-16.9Zm0,14.11v-6.53h18.62v6.53h-18.62Z"/>
        <path class="cls-1" d="m136.49,61.49v-5.08h24.57v5.08h-24.57Zm9.41,24.44v-28.9h5.75v28.9h-5.75Z"/>
        <path class="cls-1" d="m165.01,85.93v-29.53h5.71v29.53h-5.71Zm4.2-12.31v-4.49h6.8c1.43,0,2.52-.36,3.28-1.07s1.13-1.69,1.13-2.92-.38-2.15-1.13-2.92c-.76-.77-1.83-1.16-3.23-1.16h-6.85v-4.66h7.39c1.88,0,3.53.37,4.98,1.11,1.44.74,2.56,1.76,3.36,3.04.8,1.29,1.2,2.77,1.2,4.45s-.4,3.24-1.2,4.51c-.8,1.27-1.93,2.28-3.38,3-1.46.73-3.15,1.09-5.08,1.09h-7.27Zm11.93,12.31l-9.79-12.77,5.29-1.64,11.42,14.41h-6.93Z"/>
        <path class="cls-1" d="m188.15,85.93l11.93-29.53h4.7l11.8,29.53h-6.09l-9.16-24.19h2.1l-9.24,24.19h-6.05Zm6.34-5.5v-4.79h15.88v4.79h-15.88Z"/>
        <path class="cls-1" d="m231.7,86.4c-2.18,0-4.2-.39-6.05-1.18-1.85-.78-3.46-1.87-4.85-3.25s-2.46-3-3.21-4.85c-.76-1.85-1.13-3.84-1.13-5.96s.38-4.12,1.13-5.96c.76-1.85,1.82-3.46,3.19-4.83,1.37-1.37,2.98-2.45,4.83-3.23s3.85-1.18,6.01-1.18c2.41,0,4.5.39,6.28,1.16,1.78.77,3.35,1.81,4.72,3.13l-3.91,3.91c-.81-.9-1.81-1.6-2.98-2.1-1.18-.5-2.55-.76-4.12-.76-1.34,0-2.58.23-3.72.69s-2.12,1.13-2.96,2.02-1.48,1.93-1.93,3.15c-.45,1.22-.67,2.56-.67,4.01s.22,2.83.67,4.05c.45,1.22,1.09,2.26,1.93,3.13s1.83,1.54,2.96,2.02c1.13.48,2.39.71,3.76.71,1.65,0,3.07-.26,4.24-.78,1.18-.52,2.18-1.22,3.02-2.12l3.91,3.91c-1.4,1.34-3.02,2.4-4.85,3.17-1.83.77-3.93,1.16-6.28,1.16Z"/>
        <path class="cls-1" d="m246.78,85.93v-29.53h5.71v29.53h-5.71Zm17.85,0l-12.81-15.41,12.47-14.11h7.14l-13.86,15.37v-2.69l14.28,16.84h-7.22Z"/>
        <path class="cls-1" d="m274.97,85.93v-29.53h5.71v29.53h-5.71Zm4.2-24.49v-5.04h16.13v5.04h-16.13Zm0,11.89v-4.91h14.91v4.91h-14.91Zm0,12.6v-5.04h16.34v5.04h-16.34Z"/>
        <path class="cls-1" d="m300.29,85.93v-29.53h5.71v29.53h-5.71Zm4.2-12.31v-4.49h6.8c1.43,0,2.52-.36,3.28-1.07s1.13-1.69,1.13-2.92-.38-2.15-1.13-2.92c-.76-.77-1.83-1.16-3.23-1.16h-6.85v-4.66h7.39c1.88,0,3.53.37,4.98,1.11,1.44.74,2.56,1.76,3.36,3.04.8,1.29,1.2,2.77,1.2,4.45s-.4,3.24-1.2,4.51c-.8,1.27-1.93,2.28-3.38,3-1.46.73-3.15,1.09-5.08,1.09h-7.27Zm11.93,12.31l-9.79-12.77,5.29-1.64,11.42,14.41h-6.93Z"/>
      </g>
    </g>
  </g>
</svg>